<mxfile host="app.diagrams.net" modified="2023-05-22T04:31:29.262Z" agent="Mozilla/5.0 (Windows NT 10.0; Win64; x64) AppleWebKit/537.36 (KHTML, like Gecko) Chrome/113.0.0.0 Safari/537.36 Edg/113.0.1774.42" version="21.3.2" etag="trw2LVoSy_3J_TO9y-mc" type="github">
  <diagram name="Page-1" id="wJfqy84jbx1mH-gcrJG9">
    <mxGraphModel>
      <root>
        <mxCell id="0" />
        <mxCell id="1" parent="0" />
      </root>
    </mxGraphModel>
  </diagram>
</mxfile>
